<svg xmlns="http://www.w3.org/2000/svg" viewBox="0 0 841.9 595.3"><g fill="#61dafb"><path d="M419.6 149.9c-11.8-20.8-30.8-37.1-53.2-47.8-22.4-10.7-47.3-16-72.2-16-24.9 0-49.8 5.3-72.2 16-22.4 10.7-41.5 27-53.2 47.8-11.8 20.8-17.6 44.3-17.6 68.1 0 23.8 5.9 47.3 17.6 68.1 11.8 20.8 30.8 37.1 53.2 47.8 22.4 10.7 47.3 16 72.2 16 24.9 0-49.8-5.3 72.2-16 22.4-10.7 41.5-27 53.2-47.8 11.8-20.8 17.6-44.3 17.6-68.1 0-23.8-5.9-47.3-17.6-68.1z"/><path d="M420.1 259.8c-11.8-20.8-30.8-37.1-53.2-47.8-22.4-10.7-47.3-16-72.2-16-24.9 0-49.8 5.3-72.2 16-22.4 10.7-41.5 27-53.2 47.8-11.8 20.8-17.6 44.3-17.6 68.1 0 23.8 5.9 47.3 17.6 68.1 11.8 20.8 30.8 37.1 53.2 47.8 22.4 10.7 47.3 16 72.2 16 24.9 0 49.8-5.3 72.2-16 22.4-10.7 41.5-27 53.2-47.8 11.8-20.8 17.6-44.3 17.6-68.1 0-23.8-5.9-47.3-17.6-68.1z"/><path d="M420.1 410.1c-11.8-20.8-30.8-37.1-53.2-47.8-22.4-10.7-47.3-16-72.2-16-24.9 0-49.8 5.3-72.2 16-22.4 10.7-41.5 27-53.2 47.8-11.8 20.8-17.6 44.3-17.6 68.1 0 23.8 5.9 47.3 17.6 68.1 11.8 20.8 30.8 37.1 53.2 47.8 22.4 10.7 47.3 16 72.2 16 24.9 0 49.8-5.3 72.2-16 22.4-10.7 41.5-27 53.2-47.8 11.8-20.8 17.6-44.3 17.6-68.1 0-23.8-5.9-47.3-17.6-68.1z"/></g></svg>
